<?xml version="1.0" standalone="no"?>
<!DOCTYPE svg PUBLIC "-//W3C//DTD SVG 20010904//EN"
 "http://www.w3.org/TR/2001/REC-SVG-20010904/DTD/svg10.dtd">
<svg version="1.0" xmlns="http://www.w3.org/2000/svg"
 width="212.000000pt" height="212.000000pt" viewBox="0 0 212.000000 212.000000"
 preserveAspectRatio="xMidYMid meet">
<metadata>
Created by potrace 1.10, written by Peter Selinger 2001-2011
</metadata>
<g transform="translate(0.000000,212.000000) scale(0.100000,-0.100000)"
fill="#ffffff" stroke="none">
<path d="M211 1216 c-8 -9 -11 -64 -9 -172 3 -146 4 -159 22 -162 30 -6 36 16
36 130 l0 106 31 26 c40 34 88 34 126 2 27 -23 28 -28 33 -142 4 -106 7 -119
24 -122 30 -6 36 16 36 130 l0 106 31 26 c43 36 91 35 130 -3 28 -29 29 -32
29 -129 0 -113 4 -132 30 -132 25 0 30 19 30 115 0 111 -7 141 -44 180 -58 61
-156 65 -212 10 l-24 -24 -26 24 c-49 45 -134 52 -179 15 -10 -9 -16 -6 -25 9
-13 24 -23 26 -39 7z"/>
<path d="M830 1215 c-8 -10 -11 -47 -8 -118 3 -96 5 -106 32 -142 56 -73 161
-95 227 -46 l27 20 6 -24 c7 -28 40 -34 50 -9 3 9 6 82 6 164 0 119 -3 150
-15 160 -12 10 -18 10 -30 0 -11 -10 -15 -36 -15 -112 l0 -100 -34 -34 c-29
-29 -41 -34 -81 -34 -40 0 -52 5 -81 34 l-34 34 0 99 c0 64 -4 103 -12 111
-16 16 -23 15 -38 -3z"/>
<path d="M1294 1216 c-69 -30 -85 -106 -35 -157 26 -26 36 -29 93 -29 77 0
101 -14 96 -55 l-3 -30 -85 -3 c-116 -3 -132 -7 -128 -35 3 -21 8 -22 106 -25
l103 -3 35 35 c39 39 43 72 17 117 -22 37 -34 42 -117 48 -54 5 -72 10 -82 26
-12 18 -11 24 2 43 13 19 24 22 90 22 79 0 100 13 74 45 -16 19 -123 20 -166
1z"/>
<path d="M1700 1218 c-52 -15 -90 -47 -111 -92 -23 -52 -23 -90 0 -142 45 -98
162 -132 252 -71 37 25 43 44 18 60 -13 8 -23 5 -44 -11 -43 -34 -105 -30
-150 9 -61 54 -52 59 105 59 158 0 162 2 141 69 -14 50 -43 85 -83 104 -48 22
-88 27 -128 15z m100 -63 c27 -14 60 -51 60 -67 0 -5 -52 -8 -115 -8 -63 0
-115 4 -115 9 0 15 42 62 64 71 33 13 74 11 106 -5z"/>
</g>
</svg>
